<svg width="96" height="96" viewBox="0 0 96 96" fill="none" xmlns="http://www.w3.org/2000/svg">
<path d="M0 20C0 8.9543 8.9543 0 20 0H76C87.0457 0 96 8.9543 96 20V76C96 87.0457 87.0457 96 76 96H20C8.9543 96 0 87.0457 0 76V20Z" fill="#72299F"/>
<path d="M81.081 44.768C83.6397 46.207 83.6397 49.793 81.081 51.232L25.4997 82.4911C22.9342 83.934 19.722 82.1371 19.722 79.2591V16.7409C19.722 13.8629 22.9342 12.066 25.4997 13.5089L81.081 44.768Z" fill="white"/>
<path d="M14.8016 27.412L40.6724 18.3258L41.9794 21.7435L16.7507 33.1083L14.8016 27.412Z" fill="#72299F"/>
<path d="M17.3519 55.7253L77.1638 38.6225L78.5283 43.0807L19.1304 63.1968L17.3519 55.7253Z" fill="#72299F"/>
<path d="M13 44.0513L57.2718 18.8228L59.8007 21.1021L16.8164 47.9999L13 44.0513Z" fill="#72299F"/>
<path d="M68.1445 29.9346L19.1744 49.0008L17.2688 45.0487L65.3907 23.2808L68.1445 29.9346Z" fill="#72299F"/>
<path d="M52.6793 60.7103L19.694 80.8613L15.3342 73.0787L52.6793 60.7103Z" fill="#72299F"/>
</svg>
